<svg width="250" height="314" viewBox="0 0 250 314" fill="none" xmlns="http://www.w3.org/2000/svg">
<path d="M142.727 137.185C147.51 137.185 151.388 133.311 151.388 128.531C151.388 123.752 147.51 119.878 142.727 119.878C137.944 119.878 134.067 123.752 134.067 128.531C134.067 133.311 137.944 137.185 142.727 137.185Z" fill="#E54D2E"/>
<path d="M141.869 131.832C141.674 131.833 141.484 131.77 141.329 131.653L141.319 131.646L139.284 130.089C139.189 130.017 139.11 129.927 139.05 129.824C138.99 129.721 138.951 129.608 138.936 129.49C138.92 129.372 138.927 129.252 138.958 129.137C138.989 129.023 139.042 128.915 139.114 128.821C139.186 128.726 139.277 128.647 139.38 128.588C139.483 128.528 139.596 128.49 139.714 128.474C139.832 128.459 139.952 128.467 140.067 128.498C140.182 128.528 140.289 128.582 140.384 128.654L141.702 129.664L144.817 125.605C144.889 125.51 144.979 125.431 145.082 125.372C145.185 125.313 145.299 125.274 145.416 125.259C145.534 125.243 145.654 125.251 145.768 125.282C145.883 125.312 145.991 125.365 146.085 125.437C146.275 125.583 146.4 125.799 146.431 126.037C146.463 126.274 146.398 126.514 146.253 126.705L142.588 131.48C142.504 131.59 142.395 131.679 142.27 131.74C142.145 131.801 142.008 131.833 141.869 131.832Z" fill="white"/>
<path d="M142.727 162.48C147.51 162.48 151.388 158.606 151.388 153.827C151.388 149.047 147.51 145.173 142.727 145.173C137.944 145.173 134.067 149.047 134.067 153.827C134.067 158.606 137.944 162.48 142.727 162.48Z" fill="#E54D2E"/>
<path d="M141.869 157.128C141.674 157.128 141.484 157.065 141.329 156.948L141.319 156.941L139.284 155.384C139.189 155.312 139.11 155.222 139.05 155.119C138.99 155.017 138.951 154.903 138.936 154.785C138.92 154.667 138.927 154.548 138.958 154.433C138.989 154.318 139.042 154.21 139.114 154.116C139.186 154.022 139.277 153.943 139.38 153.883C139.483 153.824 139.596 153.785 139.714 153.77C139.832 153.754 139.952 153.762 140.067 153.793C140.182 153.824 140.289 153.877 140.384 153.95L141.702 154.96L144.817 150.9C144.889 150.806 144.979 150.727 145.082 150.668C145.185 150.608 145.299 150.57 145.416 150.554C145.534 150.539 145.654 150.546 145.768 150.577C145.883 150.608 145.991 150.661 146.085 150.733C146.275 150.879 146.4 151.095 146.431 151.332C146.463 151.57 146.398 151.81 146.253 152L142.588 156.775C142.504 156.885 142.395 156.974 142.27 157.035C142.145 157.097 142.008 157.128 141.869 157.128Z" fill="white"/>
<path d="M147.391 191.77C152.174 191.77 156.051 187.895 156.051 183.116C156.051 178.337 152.174 174.462 147.391 174.462C142.608 174.462 138.73 178.337 138.73 183.116C138.73 187.895 142.608 191.77 147.391 191.77Z" fill="#E54D2E"/>
<path d="M146.532 186.417C146.338 186.418 146.148 186.355 145.992 186.238L145.982 186.231L143.947 184.673C143.852 184.601 143.773 184.511 143.713 184.409C143.654 184.306 143.615 184.192 143.599 184.075C143.583 183.957 143.591 183.837 143.621 183.722C143.652 183.607 143.705 183.5 143.777 183.405C143.85 183.311 143.94 183.232 144.043 183.172C144.146 183.113 144.26 183.074 144.378 183.059C144.496 183.044 144.615 183.052 144.73 183.082C144.845 183.113 144.953 183.167 145.047 183.239L146.365 184.249L149.481 180.189C149.553 180.095 149.643 180.016 149.746 179.957C149.849 179.898 149.962 179.859 150.08 179.843C150.197 179.828 150.317 179.836 150.432 179.866C150.547 179.897 150.654 179.95 150.748 180.022C150.938 180.168 151.063 180.384 151.095 180.621C151.126 180.859 151.062 181.099 150.916 181.289L147.252 186.065C147.167 186.175 147.058 186.264 146.933 186.325C146.809 186.386 146.671 186.418 146.532 186.417Z" fill="white"/>
<path d="M230.902 255.367C230.812 255.367 230.756 255.365 230.736 255.364L219.984 255.365V253.781H230.775C231.025 253.79 236.122 253.934 240.819 248.239C247.818 239.753 253.565 218.744 241.2 166.852C224.574 97.0763 238.441 35.4333 245.175 12.1693C245.506 11.0183 245.566 9.80602 245.348 8.62819C245.13 7.45037 244.641 6.33928 243.92 5.38271C243.199 4.42615 242.265 3.65031 241.191 3.11651C240.118 2.58271 238.936 2.30558 237.737 2.30701H77.1619C75.9411 2.30864 74.7379 2.59787 73.6499 3.15123C72.5619 3.70459 71.6198 4.50648 70.9001 5.49181C68.0476 9.4126 64.133 16.9448 61.6834 30.5642L60.1233 30.2842C62.6259 16.3689 66.6678 8.61512 69.6178 4.56053C70.4848 3.37325 71.6198 2.40699 72.9306 1.7402C74.2414 1.0734 75.6911 0.724873 77.1619 0.722905H237.737C239.182 0.721516 240.607 1.05579 241.9 1.69931C243.193 2.34284 244.318 3.27799 245.187 4.43087C246.056 5.58376 246.645 6.9228 246.907 8.34219C247.17 9.76159 247.098 11.2225 246.698 12.6094C239.999 35.7527 226.204 97.0759 242.743 166.485C255.281 219.107 249.254 240.571 241.989 249.311C237.198 255.075 231.918 255.367 230.902 255.367Z" fill="#E6E6E6"/>
<path d="M201.97 284.277C201.88 284.277 201.823 284.275 201.804 284.273L191.051 284.275V282.691H201.842C202.094 282.698 207.19 282.843 211.886 277.149C218.885 268.662 224.633 247.653 212.268 195.762C195.642 125.986 209.509 64.3429 216.242 41.0789C216.574 39.928 216.633 38.7157 216.416 37.5379C216.198 36.36 215.709 35.249 214.988 34.2924C214.266 33.3358 213.332 32.56 212.259 32.0262C211.186 31.4924 210.003 31.2153 208.805 31.2167H48.2295C47.0087 31.2183 45.8054 31.5075 44.7175 32.0609C43.6295 32.6143 42.6874 33.4161 41.9677 34.4015C39.1151 38.3223 35.2006 45.8544 32.751 59.4739L31.1907 59.1939C33.6934 45.2786 37.7353 37.5248 40.6854 33.4702C41.5523 32.2829 42.6873 31.3167 43.9981 30.6499C45.3089 29.9831 46.7586 29.6345 48.2295 29.6326H208.805C210.249 29.6312 211.674 29.9655 212.967 30.609C214.26 31.2525 215.386 32.1877 216.255 33.3406C217.124 34.4934 217.713 35.8325 217.975 37.2519C218.237 38.6713 218.165 40.1321 217.765 41.5191C211.066 64.6624 197.271 125.986 213.81 195.395C226.349 248.017 220.321 269.481 213.057 278.221C208.265 283.985 202.986 284.277 201.97 284.277Z" fill="#CCCCCC"/>
<path d="M184.877 224.308C168.336 154.898 182.133 93.5703 188.835 70.4317C189.234 69.0447 189.305 67.5841 189.042 66.1649C188.78 64.7458 188.191 63.4071 187.322 62.2543C186.453 61.1014 185.328 60.1661 184.036 59.522C182.743 58.878 181.319 58.5427 179.874 58.5428H19.2955C17.8253 58.5443 16.3761 58.8923 15.0657 59.5585C13.7553 60.2247 12.6207 61.1904 11.754 62.3771C5.27197 71.2837 -8.1784 100.819 6.84444 182.544C14.8784 226.265 14.7587 256.073 12.134 275.71C10.6614 286.767 8.38988 294.595 6.33113 299.874L6.11156 300.433C5.67795 301.502 5.45186 302.642 5.44537 303.795C5.43018 305.097 5.6913 306.386 6.21146 307.58C6.73163 308.773 7.49901 309.843 8.46307 310.718C9.09167 311.307 9.80315 311.8 10.5749 312.182C11.2156 312.509 11.8934 312.757 12.5936 312.921C13.3066 313.095 14.0381 313.182 14.7721 313.181H172.873C172.893 313.181 172.946 313.188 173.039 313.188C174.052 313.188 179.335 312.895 184.125 307.13C191.386 298.39 197.415 276.929 184.877 224.308ZM182.952 306.058C178.256 311.756 173.159 311.61 172.913 311.603H14.7721C13.506 311.603 12.2592 311.293 11.1409 310.7C10.0225 310.107 9.06646 309.249 8.35638 308.202C7.73181 307.296 7.31229 306.265 7.12707 305.181C6.94185 304.097 6.99537 302.986 7.2839 301.924C7.35944 301.616 7.45739 301.313 7.57699 301.019C9.92848 294.981 11.6714 288.724 12.78 282.341C16.5374 261.871 17.2368 230.285 8.40322 182.257C-6.50608 101.139 6.67789 72.0493 13.0331 63.309C13.7541 62.3251 14.6966 61.5245 15.7845 60.9717C16.8724 60.419 18.0751 60.1297 19.2955 60.1271H179.874C181.072 60.1263 182.254 60.4037 183.326 60.9375C184.399 61.4713 185.332 62.2468 186.053 63.2028C186.774 64.1589 187.263 65.2693 187.481 66.4464C187.699 67.6236 187.64 68.8352 187.309 69.9857C180.574 93.2508 166.71 154.898 183.339 224.674C195.703 276.562 189.954 297.571 182.952 306.058Z" fill="#3F3D56"/>
<path d="M108.591 134.123H25.8595C24.1777 134.123 22.5648 133.455 21.3755 132.267C20.1863 131.079 19.5182 129.467 19.5182 127.787C19.5182 126.106 20.1863 124.494 21.3755 123.306C22.5648 122.118 24.1777 121.45 25.8595 121.45H108.591C110.273 121.45 111.886 122.118 113.075 123.306C114.265 124.494 114.933 126.106 114.933 127.787C114.933 129.467 114.265 131.079 113.075 132.267C111.886 133.455 110.273 134.123 108.591 134.123Z" fill="#CCCCCC"/>
<path d="M108.591 161.415H25.8595C24.1777 161.415 22.5648 160.748 21.3755 159.56C20.1863 158.371 19.5182 156.76 19.5182 155.079C19.5182 153.399 20.1863 151.787 21.3755 150.599C22.5648 149.41 24.1777 148.743 25.8595 148.743H108.591C110.273 148.743 111.886 149.41 113.075 150.599C114.265 151.787 114.933 153.399 114.933 155.079C114.933 156.76 114.265 158.371 113.075 159.56C111.886 160.748 110.273 161.415 108.591 161.415Z" fill="#CCCCCC"/>
<path d="M115.253 189.374H32.5215C30.8397 189.374 29.2268 188.706 28.0376 187.518C26.8483 186.329 26.1802 184.718 26.1802 183.037C26.1802 181.357 26.8483 179.745 28.0376 178.557C29.2268 177.368 30.8397 176.701 32.5215 176.701H115.253C116.935 176.701 118.548 177.368 119.737 178.557C120.927 179.745 121.595 181.357 121.595 183.037C121.595 184.718 120.927 186.329 119.737 187.518C118.548 188.706 116.935 189.374 115.253 189.374Z" fill="#CCCCCC"/>
<path d="M119.917 218.663H37.1848C35.503 218.663 33.8901 217.995 32.7009 216.807C31.5116 215.619 30.8435 214.007 30.8435 212.326C30.8435 210.646 31.5116 209.034 32.7009 207.846C33.8901 206.658 35.503 205.99 37.1848 205.99H119.917C121.598 205.99 123.211 206.658 124.401 207.846C125.59 209.034 126.258 210.646 126.258 212.326C126.258 214.007 125.59 215.619 124.401 216.807C123.211 217.995 121.598 218.663 119.917 218.663Z" fill="#CCCCCC"/>
<path d="M119.952 84.9235H60.5017C59.6684 84.9243 58.8431 84.761 58.0729 84.443C57.3028 84.1249 56.603 83.6583 56.0134 83.0699C55.4239 82.4814 54.9562 81.7826 54.6371 81.0134C54.3181 80.2442 54.1538 79.4197 54.1538 78.5871C54.1538 77.7544 54.3181 76.93 54.6371 76.1608C54.9562 75.3916 55.4239 74.6928 56.0134 74.1043C56.603 73.5158 57.3028 73.0492 58.0729 72.7312C58.8431 72.4131 59.6684 72.2499 60.5017 72.2507H119.952C121.634 72.2507 123.247 72.9183 124.436 74.1066C125.625 75.2949 126.293 76.9066 126.293 78.5871C126.293 80.2676 125.625 81.8793 124.436 83.0676C123.247 84.2559 121.634 84.9235 119.952 84.9235Z" fill="#E54D2E"/>
<path d="M152.72 220.98C157.503 220.98 161.381 217.106 161.381 212.327C161.381 207.547 157.503 203.673 152.72 203.673C147.937 203.673 144.06 207.547 144.06 212.327C144.06 217.106 147.937 220.98 152.72 220.98Z" fill="#CCCCCC"/>
<path d="M123.914 247.287H41.182C39.5002 247.287 37.8873 246.619 36.698 245.431C35.5088 244.242 34.8407 242.631 34.8407 240.95C34.8407 239.27 35.5088 237.658 36.698 236.47C37.8873 235.281 39.5002 234.614 41.182 234.614H123.914C125.596 234.614 127.209 235.281 128.398 236.47C129.587 237.658 130.255 239.27 130.255 240.95C130.255 242.631 129.587 244.242 128.398 245.431C127.209 246.619 125.596 247.287 123.914 247.287Z" fill="#CCCCCC"/>
<path d="M156.717 249.604C161.5 249.604 165.378 245.729 165.378 240.95C165.378 236.171 161.5 232.297 156.717 232.297C151.934 232.297 148.057 236.171 148.057 240.95C148.057 245.729 151.934 249.604 156.717 249.604Z" fill="#CCCCCC"/>
</svg>
